<svg id="hero" class="land-svg" width="800" height="300" viewBox="0 0 800 300" fill="none" xmlns="http://www.w3.org/2000/svg"><g id="flagLeft" class="svelte-yu90zj"><path d="M69 83H65V227H69V83Z" fill="#E0EBE8"></path><path d="M28.5 108.83L69.5 93.5V125.5L28.5 108.83Z" fill="#E0EBE8"></path><path d="M28.5 88.83L69.5 73.5V105.5L28.5 88.83Z" fill="#58D6B9"></path></g><g id="flagRight" class="svelte-yu90zj"><path d="M729 83H725V227H729V83Z" fill="#E0EBE8"></path><path d="M729 125V92L687 108.5L729 125Z" fill="#E0EBE8"></path><path d="M729 105V72L687 88.5L729 105Z" fill="#F4A0A0"></path></g><g id="hillMiddle" class="svelte-yu90zj"><path d="M212 231C212 132.14 296.62 52 401 52C505.38 52 590 132.14 590 231H401H212Z" fill="#F4A0A0"></path></g><g id="hillRight" class="svelte-yu90zj"><path d="M781.517 300C747.287 217.38 663.472 159 565.5 159C467.528 159 383.713 217.38 349.483 300H781.517Z" fill="#8FD182"></path></g><g id="hillLeft" class="svelte-yu90zj"><path d="M257.5 133C142.547 133 45.3985 203.368 13.8169 300H501.183C469.602 203.368 372.453 133 257.5 133Z" fill="#58D6B9"></path></g><g id="treeHillLeftFirst" class="svelte-yu90zj"><path d="M104 221C110.627 221 116 218.538 116 215.5C116 212.462 110.627 210 104 210C97.3726 210 92 212.462 92 215.5C92 218.538 97.3726 221 104 221Z" fill="black" fill-opacity="0.1"></path><path d="M90 202L103.38 145L119 202H90Z" fill="#F6D546"></path><path d="M103 178H105V185.811L109.23 181.5L110.5 182.8L105 188.404V193.811L109.23 189.5L110.5 190.8L105 196.404V215H103V192.404L97.5 186.8L98.77 185.5L103 189.811V178Z" fill="#CA8A65"></path></g><g id="treeHillLeftSecond" class="svelte-yu90zj"><path d="M143.5 205C150.956 205 157 202.538 157 199.5C157 196.462 150.956 194 143.5 194C136.044 194 130 196.462 130 199.5C130 202.538 136.044 205 143.5 205Z" fill="black" fill-opacity="0.1"></path><path d="M128 186L142.77 117L160 186H128Z" fill="#217D68"></path><path d="M142 162H144V169.811L148.23 165.5L149.5 166.8L144 172.404V177.811L148.23 173.5L149.5 174.8L144 180.404V199H142V176.404L136.5 170.8L137.77 169.5L142 173.811V162Z" fill="#CA8A65"></path></g><g id="treeHillLeftThird" class="svelte-yu90zj"><path d="M178 191C183.523 191 188 189.209 188 187C188 184.791 183.523 183 178 183C172.477 183 168 184.791 168 187C168 189.209 172.477 191 178 191Z" fill="black" fill-opacity="0.1"></path><path d="M164 176L177.38 124L193 176H164Z" fill="#F4A0A0"></path><path d="M177 157H179V161.053L183.23 157.14L184.5 158.32L179 163.414V168.313L183.23 164.4L184.5 165.58L179 170.674V187H177V167.044L171.5 161.95L172.77 160.77L177 164.683V157Z" fill="#CA8A65"></path></g><g id="houseHillLeft" class="svelte-yu90zj"><path d="M234 122H204V151H234V122Z" fill="#6DA0AB"></path><path d="M216 126H208V134H216V126ZM231 126H223V134H231V126ZM208 139H216V147H208V139Z" fill="#C6F7FB" fill-rule="evenodd" clip-rule="evenodd"></path><path d="M231 139H223V151H231V139Z" fill="#70595E"></path><path d="M224 110L219 106L199 122H239L232 116.4V107H224V110Z" fill="#70595E" fill-rule="evenodd" clip-rule="evenodd"></path></g><g id="treeMiddleFirst" class="svelte-yu90zj"><path d="M349 96C355.627 96 361 93.5376 361 90.5C361 87.4624 355.627 85 349 85C342.373 85 337 87.4624 337 90.5C337 93.5376 342.373 96 349 96Z" fill="black" fill-opacity="0.1"></path><path d="M334 77L348.77 8L366 77H334Z" fill="#F4A0A0"></path><path d="M348 53H350V60.8112L354.23 56.5L355.5 57.8L350 63.4038V68.8112L354.23 64.5L355.5 65.8L350 71.4038V90H348V67.4038L342.5 61.8L343.77 60.5L348 64.8112V53Z" fill="#CA8A65" fill-rule="evenodd" clip-rule="evenodd"></path></g><g id="houseMiddle" class="svelte-yu90zj"><path d="M435 38H411V60H435V38Z" fill="#CA8A65"></path><path d="M420 41H414V47H420V41ZM432 41H426V47H432V41ZM414 51H420V57H414V51Z" fill="#C6F7FB" fill-rule="evenodd" clip-rule="evenodd"></path><path d="M432 51H426V60H432V51Z" fill="#70595E"></path><path d="M426.627 27.9468L423 25L407 38H439L433.363 33.4196V25.6491H426.627V27.9468Z" fill="#70595E" fill-rule="evenodd" clip-rule="evenodd"></path></g><g id="treeHillMiddleSecond" class="svelte-yu90zj"><path d="M491.627 109.556C498.255 109.556 503.627 107.094 503.627 104.056C503.627 101.019 498.255 98.5562 491.627 98.5562C485 98.5562 479.627 101.019 479.627 104.056C479.627 107.094 485 109.556 491.627 109.556Z" fill="black" fill-opacity="0.1"></path><path d="M477.627 90.5562L491.007 33.5562L506.627 90.5562H477.627Z" fill="#217D68"></path><path d="M490.627 66.5562H492.627V74.3674L496.857 70.0562L498.127 71.3562L492.627 76.9599V82.3674L496.857 78.0562L498.127 79.3562L492.627 84.9599V103.556H490.627V80.9599L485.127 75.3562L486.397 74.0562L490.627 78.3674V66.5562Z" fill="#CA8A65"></path></g><g id="treeHillThirdFirst" class="svelte-yu90zj"><path d="M603 199C608.523 199 613 197.209 613 195C613 192.791 608.523 191 603 191C597.477 191 593 192.791 593 195C593 197.209 597.477 199 603 199Z" fill="black" fill-opacity="0.1"></path><path d="M589 184L602.38 132L618 184H589Z" fill="#F4A0A0"></path><path d="M602 165H604V169.053L608.23 165.14L609.5 166.32L604 171.414V176.313L608.23 172.4L609.5 173.58L604 178.674V195H602V175.044L596.5 169.95L597.77 168.77L602 172.683V165Z" fill="#CA8A65"></path></g><g id="treeHillThirdSecond" class="svelte-yu90zj"><path d="M645.5 254C652.956 254 659 251.538 659 248.5C659 245.462 652.956 243 645.5 243C638.044 243 632 245.462 632 248.5C632 251.538 638.044 254 645.5 254Z" fill="black" fill-opacity="0.1"></path><path d="M630 235L644.77 166L662 235H630Z" fill="#217D68"></path><path d="M644 211H646V218.811L650.23 214.5L651.5 215.8L646 221.404V226.811L650.23 222.5L651.5 223.8L646 229.404V248H644V225.404L638.5 219.8L639.77 218.5L644 222.811V211Z" fill="#CA8A65"></path></g><g id="treeHillRightThird" class="svelte-yu90zj"><path d="M679 215C684.523 215 689 213.209 689 211C689 208.791 684.523 207 679 207C673.477 207 669 208.791 669 211C669 213.209 673.477 215 679 215Z" fill="black" fill-opacity="0.1"></path><path d="M665 200L678.38 148L694 200H665Z" fill="#F6D546"></path><path d="M678 181H680V185.053L684.23 181.14L685.5 182.32L680 187.414V192.313L684.23 188.4L685.5 189.58L680 194.674V211H678V191.044L672.5 185.95L673.77 184.77L678 188.683V181Z" fill="#CA8A65"></path></g><defs><linearGradient id="paint0_linear_42_3119" x1="228.001" y1="86.0021" x2="228.001" y2="111.998" gradientUnits="userSpaceOnUse"><stop stop-color="#f0f0f0" stop-opacity="0"></stop><stop offset="1" stop-color="#f0f0f0"></stop></linearGradient><linearGradient id="paint1_linear_42_3119" x1="429.499" y1="9.99771" x2="429.499" y2="30.0028" gradientUnits="userSpaceOnUse"><stop stop-color="#f0f0f0" stop-opacity="0"></stop><stop offset="1" stop-color="#f0f0f0"></stop></linearGradient></defs></svg>