<svg version="1.1" id="Layer_1" xmlns="http://www.w3.org/2000/svg" xmlns:xlink="http://www.w3.org/1999/xlink" x="0px" y="0px"
	 width="100%" viewBox="0 0 250 132" enable-background="new 0 0 250 132" xml:space="preserve">
<path fill="#0C2548" opacity="1.000000" stroke="none" 
	d="
M1.000000,72.000000 
	C1.000000,48.394032 1.000000,24.788063 1.000000,1.000000 
	C34.020672,1.000000 67.041679,1.000000 100.537903,1.456437 
	C101.067749,4.965217 101.122383,8.017560 101.112251,11.521170 
	C101.089569,15.028176 101.131645,18.083916 101.111847,21.586821 
	C101.092911,25.117050 101.135864,28.200113 101.119537,31.721367 
	C101.092918,35.230343 101.125565,38.301128 101.102783,41.797066 
	C101.087082,45.399780 101.126808,48.577335 101.094482,52.220284 
	C101.074051,55.728584 101.125664,58.771488 101.118561,62.270840 
	C101.030006,65.747940 101.000160,68.768593 100.511139,71.878632 
	C67.034645,71.978676 34.017323,71.989334 1.000000,72.000000 
z"/>
<path fill="#C21746" opacity="1.000000" stroke="none" 
	d="
M251.000000,122.000000 
	C251.000000,125.660378 251.000000,129.320755 251.000000,132.977753 
	C167.666656,132.974380 84.333328,132.974380 1.000000,132.974380 
	C1.000000,129.621140 1.000000,126.293526 1.443604,122.648117 
	C83.946747,122.356758 166.006271,122.384605 248.065811,122.392593 
	C249.043854,122.392685 250.021942,122.136536 251.000000,122.000000 
z"/>
<path fill="#FFFFFF" opacity="1.000000" stroke="none" 
	d="
M1.000000,72.454102 
	C34.017323,71.989334 67.034645,71.978676 100.978455,71.933472 
	C151.603287,71.932625 201.301651,71.966309 251.000000,72.000000 
	C251.000000,75.030594 251.000000,78.061188 250.531357,81.542786 
	C167.041809,81.995850 84.020905,81.997925 1.000000,82.000000 
	C1.000000,78.969406 1.000000,75.938812 1.000000,72.454102 
z"/>
<path fill="#BF0D3E" opacity="1.000000" stroke="none" 
	d="
M1.000000,82.454109 
	C84.020905,81.997925 167.041809,81.995850 250.531357,81.996887 
	C251.000000,85.030594 251.000000,88.061188 250.531647,91.564606 
	C167.042206,92.024948 84.021103,92.012474 1.000000,92.000000 
	C1.000000,88.969406 1.000000,85.938812 1.000000,82.454109 
z"/>
<path fill="#FEFDFD" opacity="1.000000" stroke="none" 
	d="
M1.000000,92.454109 
	C84.021103,92.012474 167.042206,92.024948 250.531647,92.018715 
	C251.000000,95.030594 251.000000,98.061188 250.534119,101.600815 
	C176.027954,102.116302 101.987679,102.127235 27.947403,102.123421 
	C18.964933,102.122963 9.982468,102.043076 1.000000,102.000000 
	C1.000000,98.969406 1.000000,95.938812 1.000000,92.454109 
z"/>
<path fill="#C01242" opacity="1.000000" stroke="none" 
	d="
M1.000000,102.454109 
	C9.982468,102.043076 18.964933,102.122963 27.947403,102.123421 
	C101.987679,102.127235 176.027954,102.116302 250.534119,102.054916 
	C251.000000,105.030594 251.000000,108.061188 250.540375,111.645081 
	C168.044968,112.211693 86.009201,112.225845 3.973429,112.228416 
	C2.982288,112.228447 1.991143,112.079437 1.000000,112.000000 
	C1.000000,108.969406 1.000000,105.938812 1.000000,102.454109 
z"/>
<path fill="#FDF7F9" opacity="1.000000" stroke="none" 
	d="
M1.000000,112.454109 
	C1.991143,112.079437 2.982288,112.228447 3.973429,112.228416 
	C86.009201,112.225845 168.044968,112.211693 250.540375,112.099197 
	C251.000000,115.030594 251.000000,118.061188 251.000000,121.545891 
	C250.021942,122.136536 249.043854,122.392685 248.065811,122.392593 
	C166.006271,122.384605 83.946747,122.356758 1.443604,122.165161 
	C1.000000,118.969406 1.000000,115.938812 1.000000,112.454109 
z"/>
<path fill="#C4214E" opacity="1.000000" stroke="none" 
	d="
M101.166534,51.754894 
	C101.126808,48.577335 101.087082,45.399780 101.557678,41.816715 
	C150.066833,41.415573 198.065689,41.424149 246.064529,41.406418 
	C247.709732,41.405811 249.354843,41.141434 251.000000,41.000000 
	C251.000000,44.361530 251.000000,47.723057 250.542938,51.429497 
	C200.446106,51.767899 150.806320,51.761398 101.166534,51.754894 
z"/>
<path fill="#BF0D3E" opacity="1.000000" stroke="none" 
	d="
M101.177017,11.069903 
	C101.122383,8.017560 101.067749,4.965217 101.006561,1.456437 
	C151.000000,1.000000 201.000015,1.000000 251.000000,1.000000 
	C251.000000,4.044667 251.000000,7.035769 250.531967,10.539260 
	C200.434967,11.057734 150.806000,11.063818 101.177017,11.069903 
z"/>
<path fill="#FEFCFD" opacity="1.000000" stroke="none" 
	d="
M101.112259,11.521170 
	C150.806000,11.063818 200.434967,11.057734 250.531967,11.025825 
	C251.000000,14.030593 251.000000,17.061186 250.535339,20.611717 
	C200.438354,21.134323 150.806046,21.136990 101.173721,21.139656 
	C101.131645,18.083916 101.089569,15.028176 101.112259,11.521170 
z"/>
<path fill="#C11343" opacity="1.000000" stroke="none" 
	d="
M101.111847,21.586821 
	C150.806046,21.136990 200.438354,21.134323 250.535339,21.065828 
	C251.000000,24.030594 251.000000,27.061186 250.542725,30.657322 
	C200.449905,31.242968 150.814362,31.263073 101.178810,31.283178 
	C101.135864,28.200113 101.092911,25.117050 101.111847,21.586821 
z"/>
<path fill="#FDF6F8" opacity="1.000000" stroke="none" 
	d="
M101.119537,31.721367 
	C150.814362,31.263073 200.449905,31.242968 250.542725,31.111431 
	C251.000000,34.030594 251.000000,37.061188 251.000000,40.545891 
	C249.354843,41.141434 247.709732,41.405811 246.064529,41.406418 
	C198.065689,41.424149 150.066833,41.415573 101.613098,41.391563 
	C101.125565,38.301128 101.092918,35.230343 101.119537,31.721367 
z"/>
<path fill="#FDF9FA" opacity="1.000000" stroke="none" 
	d="
M101.094482,52.220284 
	C150.806320,51.761398 200.446106,51.767899 250.542938,51.887199 
	C251.000000,55.030594 251.000000,58.061188 250.536224,61.472900 
	C200.440735,61.840809 150.809006,61.827602 101.177284,61.814396 
	C101.125664,58.771488 101.074051,55.728584 101.094482,52.220284 
z"/>
<path fill="#C01141" opacity="1.000000" stroke="none" 
	d="
M101.118561,62.270840 
	C150.809006,61.827602 200.440735,61.840809 250.536224,61.927010 
	C251.000000,65.030594 251.000000,68.061188 251.000000,71.545883 
	C201.301651,71.966309 151.603287,71.932625 101.437622,71.844086 
	C101.000160,68.768593 101.030006,65.747940 101.118561,62.270840 
z"/>
</svg>